<svg xmlns="http://www.w3.org/2000/svg" viewBox="0 0 300 80" fill="none">
  <defs>
    <linearGradient id="gBlueBright" x1="0" y1="0" x2="1" y2="1">
      <stop offset="0%" stop-color="#60A5FA"/>
      <stop offset="100%" stop-color="#2563EB"/>
    </linearGradient>
    <linearGradient id="gText" x1="0" y1="0" x2="0" y2="1">
      <stop offset="0%" stop-color="#F1F5F9"/>
      <stop offset="100%" stop-color="#CBD5E1"/>
    </linearGradient>
  </defs>

  <g transform="translate(8,10)">
    <circle cx="34" cy="10" r="7" fill="url(#gBlueBright)"/>
    <path d="M23 24 Q23 17 34 17 Q45 17 45 24 L45 36 L23 36 Z" fill="url(#gBlueBright)" opacity="0.95"/>

    <circle cx="14" cy="18" r="6" fill="url(#gBlueBright)" opacity="0.7"/>
    <path d="M4 30 Q4 24 14 24 Q24 24 24 30 L24 40 L4 40 Z" fill="url(#gBlueBright)" opacity="0.7"/>

    <circle cx="54" cy="18" r="6" fill="url(#gBlueBright)" opacity="0.7"/>
    <path d="M44 30 Q44 24 54 24 Q64 24 64 30 L64 40 L44 40 Z" fill="url(#gBlueBright)" opacity="0.7"/>

    <path d="M2 42 Q34 33 66 42" stroke="url(#gBlueBright)" stroke-width="3" fill="none" stroke-linecap="round"/>

    <g transform="translate(24,46)">
      <path d="M10 0 L13 1.5 L16 0 L18.5 3 L17 6 L18.5 9 L16 12 L13 10.5 L10 12 L7 10.5 L5 9 L6.5 6 L5 3 L7.5 1.5 Z" fill="url(#gBlueBright)"/>
      <circle cx="11.5" cy="6" r="3" fill="#070C18"/>
    </g>
  </g>

  <text x="86" y="44" font-family="Inter, system-ui, sans-serif" font-size="32" font-weight="800" letter-spacing="3" fill="url(#gText)">GESTE<tspan fill="#3B82F6">K</tspan></text>
  <text x="87" y="64" font-family="Inter, system-ui, sans-serif" font-size="8.5" font-weight="600" letter-spacing="3.8" fill="#60A5FA">MANAGE  ·  AUTOMATE  ·  SCALE</text>
</svg>
